<svg width="40" height="40" viewBox="0 0 40 40" fill="none" xmlns="http://www.w3.org/2000/svg">
<g id="sentiment_satisfied_FILL0_wght400_GRAD0_opsz48 1">
<path id="Vector" d="M26.0833 17.7917C26.7083 17.7917 27.2396 17.5729 27.6771 17.1354C28.1146 16.6979 28.3333 16.1667 28.3333 15.5417C28.3333 14.9167 28.1146 14.3854 27.6771 13.9479C27.2396 13.5104 26.7083 13.2917 26.0833 13.2917C25.4583 13.2917 24.9271 13.5104 24.4896 13.9479C24.0521 14.3854 23.8333 14.9167 23.8333 15.5417C23.8333 16.1667 24.0521 16.6979 24.4896 17.1354C24.9271 17.5729 25.4583 17.7917 26.0833 17.7917ZM13.9167 17.7917C14.5417 17.7917 15.0729 17.5729 15.5104 17.1354C15.9479 16.6979 16.1667 16.1667 16.1667 15.5417C16.1667 14.9167 15.9479 14.3854 15.5104 13.9479C15.0729 13.5104 14.5417 13.2917 13.9167 13.2917C13.2917 13.2917 12.7604 13.5104 12.3229 13.9479C11.8854 14.3854 11.6667 14.9167 11.6667 15.5417C11.6667 16.1667 11.8854 16.6979 12.3229 17.1354C12.7604 17.5729 13.2917 17.7917 13.9167 17.7917ZM20 29.125C21.8333 29.125 23.5208 28.6319 25.0625 27.6458C26.6042 26.6597 27.7222 25.3194 28.4167 23.625H26.25C25.6111 24.7361 24.7361 25.5903 23.625 26.1875C22.5139 26.7847 21.3125 27.0833 20.0208 27.0833C18.7292 27.0833 17.5208 26.7917 16.3958 26.2083C15.2708 25.625 14.4028 24.7639 13.7917 23.625H11.5833C12.3056 25.3194 13.4306 26.6597 14.9583 27.6458C16.4861 28.6319 18.1667 29.125 20 29.125ZM20 36.6667C17.6945 36.6667 15.5278 36.2292 13.5 35.3542C11.4722 34.4792 9.70834 33.2917 8.20834 31.7917C6.70834 30.2917 5.52084 28.5278 4.64584 26.5C3.77084 24.4722 3.33334 22.3056 3.33334 20C3.33334 17.6944 3.77084 15.5278 4.64584 13.5C5.52084 11.4722 6.70834 9.70833 8.20834 8.20833C9.70834 6.70833 11.4722 5.52083 13.5 4.64583C15.5278 3.77083 17.6945 3.33333 20 3.33333C22.3056 3.33333 24.4722 3.77083 26.5 4.64583C28.5278 5.52083 30.2917 6.70833 31.7917 8.20833C33.2917 9.70833 34.4792 11.4722 35.3542 13.5C36.2292 15.5278 36.6667 17.6944 36.6667 20C36.6667 22.3056 36.2292 24.4722 35.3542 26.5C34.4792 28.5278 33.2917 30.2917 31.7917 31.7917C30.2917 33.2917 28.5278 34.4792 26.5 35.3542C24.4722 36.2292 22.3056 36.6667 20 36.6667ZM20 34.1667C23.9549 34.1667 27.3047 32.7943 30.0495 30.0495C32.7943 27.3047 34.1667 23.9549 34.1667 20C34.1667 16.0451 32.7943 12.6953 30.0495 9.9505C27.3047 7.20572 23.9549 5.83333 20 5.83333C16.0452 5.83333 12.6953 7.20572 9.95051 9.9505C7.20573 12.6953 5.83334 16.0451 5.83334 20C5.83334 23.9549 7.20573 27.3047 9.95051 30.0495C12.6953 32.7943 16.0452 34.1667 20 34.1667Z" fill="white"/>
</g>
</svg>
