<svg width="120" height="120" viewBox="0 0 120 120" fill="none" xmlns="http://www.w3.org/2000/svg">
<g id="devices_FILL0_wght400_GRAD0_opsz48 1">
<path id="Vector" d="M10 100V88.75H20V27.5C20 25.4375 20.7344 23.6719 22.2031 22.2031C23.6719 20.7344 25.4375 20 27.5 20H105V27.5H27.5V88.75H57.5V100H10ZM68.75 100C67.6875 100 66.7969 99.6406 66.0781 98.9219C65.3594 98.2031 65 97.3125 65 96.25V38.75C65 37.6875 65.3594 36.7969 66.0781 36.0781C66.7969 35.3594 67.6875 35 68.75 35H106.25C107.312 35 108.203 35.3594 108.922 36.0781C109.641 36.7969 110 37.6875 110 38.75V96.25C110 97.3125 109.641 98.2031 108.922 98.9219C108.203 99.6406 107.312 100 106.25 100H68.75ZM72.5 88.75H102.5V42.5H72.5V88.75Z" fill="#704141"/>
</g>
</svg>
