<svg width="120" height="120" viewBox="0 0 120 120" fill="none" xmlns="http://www.w3.org/2000/svg">
<g id="sentiment_very_satisfied_FILL0_wght400_GRAD0_opsz48 1">
<path id="Vector" d="M60 87.375C65.5 87.375 70.5625 85.8958 75.1875 82.9375C79.8125 79.9792 83.1667 75.9583 85.25 70.875H34.75C36.9167 75.9583 40.2917 79.9792 44.875 82.9375C49.4583 85.8958 54.5 87.375 60 87.375ZM37.75 53.375L43.375 47.75L49 53.375L53.5 48.875L43.375 38.75L33.25 48.875L37.75 53.375ZM71.125 53.375L76.75 47.75L82.375 53.375L86.875 48.875L76.75 38.75L66.625 48.875L71.125 53.375ZM60 110C53.0833 110 46.5833 108.688 40.5 106.062C34.4167 103.438 29.125 99.875 24.625 95.375C20.125 90.875 16.5625 85.5833 13.9375 79.5C11.3125 73.4167 10 66.9167 10 60C10 53.0833 11.3125 46.5833 13.9375 40.5C16.5625 34.4167 20.125 29.125 24.625 24.625C29.125 20.125 34.4167 16.5625 40.5 13.9375C46.5833 11.3125 53.0833 10 60 10C66.9167 10 73.4167 11.3125 79.5 13.9375C85.5833 16.5625 90.875 20.125 95.375 24.625C99.875 29.125 103.438 34.4167 106.062 40.5C108.688 46.5833 110 53.0833 110 60C110 66.9167 108.688 73.4167 106.062 79.5C103.438 85.5833 99.875 90.875 95.375 95.375C90.875 99.875 85.5833 103.438 79.5 106.062C73.4167 108.688 66.9167 110 60 110ZM60 102.5C71.8646 102.5 81.9141 98.3828 90.1485 90.1485C98.3828 81.9141 102.5 71.8646 102.5 60C102.5 48.1354 98.3828 38.0859 90.1485 29.8515C81.9141 21.6172 71.8646 17.5 60 17.5C48.1354 17.5 38.0859 21.6172 29.8515 29.8515C21.6172 38.0859 17.5 48.1354 17.5 60C17.5 71.8646 21.6172 81.9141 29.8515 90.1485C38.0859 98.3828 48.1354 102.5 60 102.5Z" fill="#25BC22"/>
</g>
</svg>
