<svg width="120" height="120" viewBox="0 0 120 120" fill="none" xmlns="http://www.w3.org/2000/svg">
<g id="sentiment_sad_FILL0_wght400_GRAD0_opsz48 1">
<path id="Vector" d="M31.25 80H38.75V78.75C38.75 72.8333 40.8125 67.8125 44.9375 63.6875C49.0625 59.5625 54.0833 57.5 60 57.5C65.9167 57.5 70.9375 59.5625 75.0625 63.6875C79.1875 67.8125 81.25 72.8333 81.25 78.75V80H88.75V78.75C88.75 70.75 85.9583 63.9583 80.375 58.375C74.7917 52.7917 68 50 60 50C52 50 45.2083 52.7917 39.625 58.375C34.0417 63.9583 31.25 70.75 31.25 78.75V80ZM35.5 46.25C38.9167 45.75 42.5208 44.4167 46.3125 42.25C50.1042 40.0833 53.125 37.625 55.375 34.875L49.625 30.125C47.9583 32.125 45.6458 33.9583 42.6875 35.625C39.7292 37.2917 37 38.3333 34.5 38.75L35.5 46.25ZM84.5 46.25L85.5 38.75C83 38.3333 80.2708 37.2917 77.3125 35.625C74.3542 33.9583 72.0417 32.125 70.375 30.125L64.625 34.875C66.875 37.625 69.8958 40.0833 73.6875 42.25C77.4792 44.4167 81.0833 45.75 84.5 46.25ZM60 110C53.0833 110 46.5833 108.688 40.5 106.062C34.4167 103.438 29.125 99.875 24.625 95.375C20.125 90.875 16.5625 85.5833 13.9375 79.5C11.3125 73.4167 10 66.9167 10 60C10 53.0833 11.3125 46.5833 13.9375 40.5C16.5625 34.4167 20.125 29.125 24.625 24.625C29.125 20.125 34.4167 16.5625 40.5 13.9375C46.5833 11.3125 53.0833 10 60 10C66.9167 10 73.4167 11.3125 79.5 13.9375C85.5833 16.5625 90.875 20.125 95.375 24.625C99.875 29.125 103.438 34.4167 106.062 40.5C108.688 46.5833 110 53.0833 110 60C110 66.9167 108.688 73.4167 106.062 79.5C103.438 85.5833 99.875 90.875 95.375 95.375C90.875 99.875 85.5833 103.438 79.5 106.062C73.4167 108.688 66.9167 110 60 110ZM60 102.5C71.8646 102.5 81.9141 98.3828 90.1485 90.1485C98.3828 81.9141 102.5 71.8646 102.5 60C102.5 48.1354 98.3828 38.0859 90.1485 29.8515C81.9141 21.6172 71.8646 17.5 60 17.5C48.1354 17.5 38.0859 21.6172 29.8515 29.8515C21.6172 38.0859 17.5 48.1354 17.5 60C17.5 71.8646 21.6172 81.9141 29.8515 90.1485C38.0859 98.3828 48.1354 102.5 60 102.5Z" fill="#D71616"/>
</g>
</svg>
