<svg width="120" height="120" viewBox="0 0 120 120" fill="none" xmlns="http://www.w3.org/2000/svg">
<g id="sentiment_dissatisfied_FILL0_wght400_GRAD0_opsz48 1">
<path id="Vector" d="M78.25 53.375C80.125 53.375 81.7188 52.7188 83.0312 51.4062C84.3438 50.0938 85 48.5 85 46.625C85 44.75 84.3438 43.1562 83.0312 41.8438C81.7188 40.5312 80.125 39.875 78.25 39.875C76.375 39.875 74.7812 40.5312 73.4688 41.8438C72.1562 43.1562 71.5 44.75 71.5 46.625C71.5 48.5 72.1562 50.0938 73.4688 51.4062C74.7812 52.7188 76.375 53.375 78.25 53.375ZM41.75 53.375C43.625 53.375 45.2188 52.7188 46.5312 51.4062C47.8438 50.0938 48.5 48.5 48.5 46.625C48.5 44.75 47.8438 43.1562 46.5312 41.8438C45.2188 40.5312 43.625 39.875 41.75 39.875C39.875 39.875 38.2812 40.5312 36.9688 41.8438C35.6562 43.1562 35 44.75 35 46.625C35 48.5 35.6562 50.0938 36.9688 51.4062C38.2812 52.7188 39.875 53.375 41.75 53.375ZM60.0218 67.875C54.4239 67.875 49.3542 69.4375 44.8125 72.5625C40.2708 75.6875 36.9167 79.8333 34.75 85H41.375C43.2083 81.5 45.7989 78.7917 49.1466 76.875C52.4944 74.9583 56.1402 74 60.0841 74C64.028 74 67.6458 74.9792 70.9375 76.9375C74.2292 78.8958 76.8333 81.5833 78.75 85H85.25C83.1667 79.75 79.8406 75.5833 75.2718 72.5C70.7029 69.4167 65.6196 67.875 60.0218 67.875ZM60 110C53.0833 110 46.5833 108.688 40.5 106.062C34.4167 103.438 29.125 99.875 24.625 95.375C20.125 90.875 16.5625 85.5833 13.9375 79.5C11.3125 73.4167 10 66.9167 10 60C10 53.0833 11.3125 46.5833 13.9375 40.5C16.5625 34.4167 20.125 29.125 24.625 24.625C29.125 20.125 34.4167 16.5625 40.5 13.9375C46.5833 11.3125 53.0833 10 60 10C66.9167 10 73.4167 11.3125 79.5 13.9375C85.5833 16.5625 90.875 20.125 95.375 24.625C99.875 29.125 103.438 34.4167 106.062 40.5C108.688 46.5833 110 53.0833 110 60C110 66.9167 108.688 73.4167 106.062 79.5C103.438 85.5833 99.875 90.875 95.375 95.375C90.875 99.875 85.5833 103.438 79.5 106.062C73.4167 108.688 66.9167 110 60 110ZM60 102.5C71.8646 102.5 81.9141 98.3828 90.1485 90.1485C98.3828 81.9141 102.5 71.8646 102.5 60C102.5 48.1354 98.3828 38.0859 90.1485 29.8515C81.9141 21.6172 71.8646 17.5 60 17.5C48.1354 17.5 38.0859 21.6172 29.8515 29.8515C21.6172 38.0859 17.5 48.1354 17.5 60C17.5 71.8646 21.6172 81.9141 29.8515 90.1485C38.0859 98.3828 48.1354 102.5 60 102.5Z" fill="#FF360A"/>
</g>
</svg>
